<?xml version="1.0" standalone="no"?>
<!DOCTYPE svg PUBLIC "-//W3C//DTD SVG 20010904//EN"
 "http://www.w3.org/TR/2001/REC-SVG-20010904/DTD/svg10.dtd">
<svg version="1.0" xmlns="http://www.w3.org/2000/svg"
 width="160.000000pt" height="160.000000pt" viewBox="0 0 160.000000 160.000000"
 preserveAspectRatio="xMidYMid meet">
<metadata>
Created by potrace 1.14, written by Peter Selinger 2001-2017
</metadata>
<g transform="translate(0.000000,160.000000) scale(0.100000,-0.100000)"
fill="#000000" stroke="none">
<path d="M560 1380 c-14 -5 -41 -8 -60 -9 -19 -1 -51 -10 -70 -20 -19 -11 -63
-33 -97 -50 -55 -27 -63 -34 -63 -59 0 -15 5 -33 12 -40 6 -6 10 -13 7 -16
-13 -12 -129 -65 -156 -70 -29 -7 -33 -5 -39 19 -4 15 -2 37 5 51 7 15 7 24 1
24 -17 0 -31 -51 -24 -83 l6 -29 -26 17 c-14 10 -30 31 -35 49 l-9 31 -1 -28
c-1 -19 9 -39 29 -59 27 -26 36 -30 70 -25 21 3 67 18 102 34 l63 29 187 -2
c103 -2 193 -6 199 -10 6 -3 17 -20 24 -37 24 -57 -12 -127 -176 -344 -80
-104 -109 -155 -112 -192 -1 -15 -6 -19 -18 -16 -51 16 -88 14 -120 -8 -45
-30 -58 -60 -55 -124 3 -41 0 -54 -13 -58 -48 -15 -87 -74 -82 -125 11 -114
93 -168 311 -204 165 -28 507 -25 585 4 14 5 25 7 25 4 0 -2 10 0 22 7 12 7
76 12 157 13 130 1 139 2 196 31 96 48 164 161 180 302 11 97 -41 232 -123
325 -82 90 -126 89 -66 -2 69 -105 92 -164 89 -227 -5 -87 -14 -124 -41 -171
-14 -24 -27 -42 -30 -40 -2 2 3 26 10 54 7 27 10 59 6 69 -16 43 -101 96 -142
90 -21 -4 -22 -2 -5 33 20 40 12 83 -20 110 -65 54 -148 76 -196 51 -19 -10
-113 -83 -127 -99 -20 -23 -131 -105 -164 -122 -52 -27 -115 -39 -138 -27 -46
25 3 150 118 306 120 162 163 287 140 400 -20 94 -75 172 -161 229 -27 18
-135 26 -175 14z"/>
</g>
</svg>
